# xmcd CD database file
#
# Track frame offsets:
#	150
#	22978
#	48150
#	97114
#	123989
#	139072
#	168180
#	178808
#	204591
#	228721
#	252460
#
# Disc length: 3639 seconds
#
# Revision: 0
# Processed by: cddbd v1.5.2PL0 Copyright (c) Steve Scherf et al.
# Submitted via: CDex 1.70beta2
#
DISCID=970e350b
DTITLE=Various Artist - Coleccion Estelar de Latin Jazz
DYEAR=1998
DGENRE=Jazz
TTITLE0=Caribe Son - Agua Fria
TTITLE1=Latin On The Flip Side - Spanish Fly
TTITLE2=Eddie Palmieri - Chocolate Ice Cream
TTITLE3=Brock Homes - Six One Half
TTITLE4=Caribe Son - Mi Gitana
TTITLE5=Manny Oquendo/Andy Gonzalez - Lester Leaps In
TTITLE6=Jimmy Wilson - El Bembe
TTITLE7=Manny Oquendo/Andy Gonzalez - Asia Minor
TTITLE8=Caribe Son - Bellevue
TTITLE9=Brock Holmes - The Beats
TTITLE10=Caribe Son - Summer Nights
EXTD=YEAR: 1998
EXTT0=
EXTT1=
EXTT2=
EXTT3=
EXTT4=
EXTT5=
EXTT6=
EXTT7=
EXTT8=
EXTT9=
EXTT10=
PLAYORDER=
